<svg width="1076" height="605" viewBox="0 0 1076 605" fill="none" xmlns="http://www.w3.org/2000/svg">
<path d="M150.078 528.707C150.078 539.124 147.962 548.889 143.73 558.004C139.824 567.118 134.453 575.094 127.617 581.93C120.781 588.766 112.806 594.137 103.691 598.043C94.5768 601.949 84.974 603.902 74.8828 603.902C64.4661 603.902 54.7005 601.949 45.5859 598.043C36.7969 594.137 28.9844 588.766 22.1484 581.93C15.3125 575.094 9.94141 567.118 6.03516 558.004C2.12891 548.889 0.175781 539.124 0.175781 528.707C0.175781 518.616 2.12891 509.013 6.03516 499.898C9.94141 490.784 15.3125 482.809 22.1484 475.973C28.9844 469.137 36.7969 463.766 45.5859 459.859C54.7005 455.953 64.4661 454 74.8828 454C84.974 454 94.5768 455.953 103.691 459.859C112.806 463.766 120.781 469.137 127.617 475.973C134.453 482.809 139.824 490.784 143.73 499.898C147.962 509.013 150.078 518.616 150.078 528.707Z" fill="url(#paint0_linear_2_27)"/>
<path d="M1031.09 285.098C1031.09 322.858 1023.93 358.503 1009.61 392.031C995.283 425.234 975.751 454.368 951.012 479.434C926.272 504.173 897.301 523.867 864.098 538.516C830.895 552.838 795.413 560 757.652 560C652.965 617.234 592.535 620.365 480.797 560C443.036 560 407.555 552.838 374.352 538.516C341.148 523.867 312.177 504.173 287.438 479.434C263.023 454.368 243.655 425.234 229.332 392.031C215.009 358.503 207.848 322.858 207.848 285.098C207.848 285.098 106.971 46.9266 207.848 10.1953C244.579 -3.17935 271.214 -3.17935 307.945 10.1953C408.822 46.9266 307.945 285.098 307.945 285.098C307.945 309.186 312.34 331.81 321.129 352.969C330.243 373.802 342.613 392.194 358.238 408.145C373.863 423.77 392.092 436.302 412.926 445.742C434.085 454.857 456.708 459.577 480.797 459.902C480.797 459.902 394.245 45.9096 569.664 10.1953C607.595 2.47274 630.854 2.47274 668.785 10.1953C844.204 45.9096 757.652 459.902 757.652 459.902C781.741 459.577 804.202 454.857 825.035 445.742C846.194 436.302 864.586 423.77 880.211 408.145C895.836 392.194 908.206 373.802 917.32 352.969C926.435 331.81 930.992 309.186 930.992 285.098C930.992 285.098 830.115 46.9266 930.992 10.1953C967.724 -3.17935 994.359 -3.17935 1031.09 10.1953C1131.97 46.9266 1031.09 285.098 1031.09 285.098Z" fill="url(#paint1_linear_2_27)"/>
<defs>
<linearGradient id="paint0_linear_2_27" x1="363" y1="-136" x2="363" y2="676.5" gradientUnits="userSpaceOnUse">
<stop offset="0.173907" stop-color="#E69FFF"/>
<stop offset="0.920095" stop-color="#2DA2F7"/>
</linearGradient>
<linearGradient id="paint1_linear_2_27" x1="363" y1="-136" x2="363" y2="676.5" gradientUnits="userSpaceOnUse">
<stop offset="0.173907" stop-color="#E69FFF"/>
<stop offset="0.920095" stop-color="#2DA2F7"/>
</linearGradient>
</defs>
</svg>
